<svg width="22" height="22" viewBox="0 0 22 22" fill="none" xmlns="http://www.w3.org/2000/svg">
<circle cx="16.8018" cy="3" r="2" fill="#0072C7"/>
<path fill-rule="evenodd" clip-rule="evenodd" d="M6.28502 11.3333C6.28502 8.75115 8.39056 6.39998 10.8017 6.39998C13.2128 6.39998 15.3184 8.75115 15.3184 11.3333V14.1111C15.3184 15.2687 15.8634 16.3587 16.7895 17.0533C16.7959 17.0581 16.7996 17.0617 16.8016 17.0639C16.8017 17.067 16.8015 17.0734 16.7985 17.0822C16.7956 17.0911 16.7919 17.0964 16.7899 17.0988C16.7871 17.0993 16.7819 17.1 16.7739 17.1L13.2992 17.1H12.7102H8.89028H8.30135L4.82947 17.1C4.82146 17.1 4.81628 17.0993 4.81343 17.0988C4.81144 17.0964 4.80782 17.0911 4.80487 17.0822C4.80192 17.0734 4.80166 17.067 4.80178 17.0639C4.80375 17.0617 4.8075 17.0581 4.81391 17.0533C5.74 16.3587 6.28502 15.2687 6.28502 14.1111V11.3333ZM7.81766 18.9H4.82947C3.07473 18.9 2.33012 16.6662 3.73391 15.6133C4.20675 15.2587 4.48502 14.7021 4.48502 14.1111V11.3333C4.48502 7.93238 7.22973 4.59998 10.8017 4.59998C14.3736 4.59998 17.1184 7.93238 17.1184 11.3333V14.1111C17.1184 14.7021 17.3966 15.2587 17.8695 15.6133C19.2733 16.6662 18.5286 18.9 16.7739 18.9H13.7829C13.7474 20.5168 12.4256 21.8166 10.8003 21.8166C9.1749 21.8166 7.85311 20.5168 7.81766 18.9ZM9.61878 18.9C9.65335 19.5225 10.1691 20.0166 10.8003 20.0166C11.4314 20.0166 11.9472 19.5225 11.9818 18.9H9.61878Z" fill="#212129"/>
</svg>
