<svg width="22" height="22" viewBox="0 0 22 22" fill="none" xmlns="http://www.w3.org/2000/svg">
<path fill-rule="evenodd" clip-rule="evenodd" d="M11.7365 3.69722C11.2542 3.56942 10.7458 3.56942 10.2635 3.69722C9.75561 3.83179 9.2676 4.18401 7.93035 5.20187L5.56675 7.00094C4.70588 7.6562 4.40331 7.89531 4.18887 8.17904C3.98504 8.44874 3.83319 8.75258 3.74079 9.07563C3.64359 9.41547 3.63648 9.796 3.63648 10.8633V16.7526C3.63648 17.4317 3.64536 17.5937 3.67954 17.704C3.77649 18.0167 4.02659 18.2615 4.34618 18.3564C4.45886 18.3898 4.62441 18.3985 5.31827 18.3985H5.88644C6.00167 18.3985 6.02968 18.3983 6.04915 18.3973C6.56284 18.3726 6.97362 17.9706 6.99886 17.4679C6.99981 17.4489 7.00006 17.4214 7.00006 17.3087V14.7509C7.00006 12.589 8.7909 10.8365 11 10.8365C13.2091 10.8365 14.9999 12.589 14.9999 14.7509V17.3087C14.9999 17.4214 15.0002 17.4489 15.0011 17.4679C15.0264 17.9706 15.4372 18.3726 15.9509 18.3973C15.9703 18.3983 15.9983 18.3985 16.1136 18.3985H16.6817C17.3756 18.3985 17.5411 18.3898 17.6538 18.3564C17.9734 18.2615 18.2235 18.0167 18.3205 17.704C18.3546 17.5937 18.3635 17.4317 18.3635 16.7526V10.8633C18.3635 9.796 18.3564 9.41547 18.2592 9.07563C18.1668 8.75258 18.015 8.44874 17.8111 8.17904C17.5967 7.89531 17.2941 7.6562 16.4333 7.00094L14.0697 5.20187C12.7324 4.18401 12.2444 3.83179 11.7365 3.69722ZM9.83584 2.15151C10.5982 1.9495 11.4018 1.9495 12.1642 2.15151C13.0308 2.38113 13.793 2.96181 14.9299 3.82789C14.9774 3.86404 15.0255 3.90069 15.0743 3.93783L17.4379 5.7369C17.4683 5.76008 17.4984 5.78295 17.5281 5.80552C18.2657 6.36667 18.762 6.74419 19.1267 7.22679C19.4489 7.6531 19.6889 8.13336 19.835 8.64398C20.0003 9.22202 20.0001 9.83715 19.9999 10.7515C19.9999 10.7883 19.9999 10.8255 19.9999 10.8633V16.7526C19.9999 16.7887 19.9999 16.8243 19.9999 16.8596C20.0005 17.3737 20.0009 17.7992 19.8863 18.1688C19.6307 18.9934 18.9714 19.6386 18.1288 19.8888C17.7512 20.0009 17.3164 20.0004 16.791 19.9999C16.755 19.9999 16.7186 19.9999 16.6817 19.9999L16.0954 19.9999C16.0079 19.9999 15.9358 19.9999 15.8706 19.9968C14.5163 19.9316 13.4333 18.8718 13.3668 17.5465C13.3636 17.4826 13.3636 17.4121 13.3636 17.3265L13.3636 14.7509C13.3636 13.4735 12.3054 12.4378 11 12.4378C9.69462 12.4378 8.6364 13.4735 8.6364 14.7509L8.6364 17.3265C8.63642 17.4121 8.63643 17.4826 8.63323 17.5465C8.56669 18.8718 7.48373 19.9316 6.12944 19.9968C6.0642 19.9999 5.99213 19.9999 5.90462 19.9999L5.31827 19.9999C5.28142 19.9999 5.24501 19.9999 5.20903 19.9999C4.68363 20.0004 4.24881 20.0009 3.87118 19.8888C3.02861 19.6386 2.36925 18.9934 2.11366 18.1688C1.99911 17.7992 1.99954 17.3737 2.00007 16.8595C2.00011 16.8243 2.00014 16.7887 2.00014 16.7526V10.8633C2.00014 10.8255 2.00013 10.7883 2.00012 10.7515C1.99986 9.83715 1.99969 9.22202 2.16502 8.64398C2.31107 8.13336 2.55108 7.6531 2.87328 7.22679C3.23802 6.74419 3.73428 6.36667 4.47195 5.80551C4.50162 5.78294 4.53168 5.76008 4.56213 5.7369L6.92573 3.93783C6.97453 3.90069 7.02264 3.86404 7.0701 3.82788C8.20699 2.9618 8.96922 2.38113 9.83584 2.15151Z" fill="#212129"/>
</svg>
