<svg width="20" height="20" viewBox="0 0 20 20" fill="none" xmlns="http://www.w3.org/2000/svg">
<path d="M10 20C15.4706 20 20 15.4608 20 10C20 4.52941 15.4608 0 9.9902 0C4.52941 0 0 4.52941 0 10C0 15.4608 4.53922 20 10 20ZM6.53922 14.2745C6.09804 14.2745 5.73529 13.902 5.73529 13.451C5.73529 13.2353 5.82353 13.0392 5.97059 12.8824L8.84314 10.0098L5.97059 7.13726C5.82353 6.98039 5.73529 6.78431 5.73529 6.56863C5.73529 6.11765 6.09804 5.76471 6.53922 5.76471C6.77451 5.76471 6.96078 5.84314 7.10784 6L9.9902 8.87255L12.902 5.9902C13.0686 5.82353 13.2451 5.7451 13.4608 5.7451C13.902 5.7451 14.2647 6.10784 14.2647 6.54902C14.2647 6.77451 14.1961 6.95098 14.0294 7.12745L11.1471 10.0098L14.0196 12.8725C14.1765 13.0392 14.2549 13.2255 14.2549 13.451C14.2549 13.902 13.8922 14.2745 13.4412 14.2745C13.2157 14.2745 13.0196 14.1765 12.8627 14.0294L9.9902 11.1569L7.13726 14.0294C6.98039 14.1863 6.77451 14.2745 6.53922 14.2745Z" fill="#D1D1D6"/>
</svg>
